<svg version="1.1" id="Layer_1" xmlns="http://www.w3.org/2000/svg" xmlns:xlink="http://www.w3.org/1999/xlink" x="0px" y="0px"
	 width="100%" viewBox="0 0 512 512" enable-background="new 0 0 512 512" xml:space="preserve">
<path fill="#1B2338" opacity="1.000000" stroke="none" 
	d="
M346.000000,513.000000 
	C342.307098,513.000000 338.614166,513.000000 334.440430,512.648804 
	C341.736481,504.229889 349.543518,496.190796 357.263153,488.068634 
	C358.697784,486.559204 359.780823,484.715668 361.235474,483.017151 
	C361.647644,482.841492 361.850464,482.674988 362.053284,482.508484 
	C361.927338,482.457672 361.746124,482.327362 361.685059,482.369843 
	C361.432617,482.545166 361.216614,482.772919 360.629333,483.033630 
	C356.931915,484.697693 353.592407,486.309448 349.851379,487.957367 
	C345.522827,489.313904 341.579498,490.588104 337.671875,491.963593 
	C326.922821,495.747284 320.739349,504.691284 314.000000,513.000000 
	C311.629425,513.000000 309.258881,513.000000 306.563660,512.687378 
	C310.497864,507.588654 314.756714,502.802521 319.234009,498.028961 
	C319.619812,497.799377 319.787109,497.557220 319.954437,497.315063 
	C319.634277,497.540497 319.314087,497.765930 318.579590,498.001648 
	C313.450043,499.012421 308.734863,500.012970 303.610809,501.011169 
	C300.794281,501.344055 298.386597,501.679291 295.564941,502.024719 
	C290.440338,502.694489 285.729736,503.354065 280.603333,504.008911 
	C277.897827,504.310577 275.608032,504.616943 272.835815,504.946838 
	C268.241486,504.984741 264.129547,504.999146 259.577759,505.008972 
	C257.085083,505.007599 255.032227,505.010803 252.530319,505.009705 
	C248.393265,504.674927 244.705292,504.344452 240.577515,504.009308 
	C238.085297,504.007660 236.032867,504.010681 233.565445,503.994446 
	C229.729706,503.614929 226.308960,503.254639 222.607147,502.646759 
	C220.258224,502.276306 218.190353,502.153412 215.838791,501.759949 
	C212.333313,500.957336 209.111542,500.425262 205.644226,499.655640 
	C203.592239,498.948853 201.785828,498.479614 199.583817,497.994354 
	C195.823547,497.326782 192.458878,496.675232 188.851044,495.776001 
	C187.064789,495.023468 185.521698,494.518555 183.647324,493.862732 
	C180.247116,492.830994 177.178192,491.950226 173.882141,490.802490 
	C172.143402,490.045563 170.631760,489.555603 168.881073,488.799866 
	C165.770248,487.361267 162.898468,486.188507 159.721527,484.874847 
	C157.984253,484.179016 156.552155,483.624054 154.883820,482.804199 
	C151.803848,481.379913 148.960114,480.220520 145.894897,478.798065 
	C144.425827,477.980835 143.178253,477.426697 141.722290,476.621582 
	C138.722168,474.933807 135.930420,473.497070 132.964096,471.778503 
	C131.517929,470.668365 130.246353,469.840027 128.678757,468.857239 
	C125.946518,467.156067 123.510292,465.609314 120.849869,463.810059 
	C119.406601,463.009094 118.187523,462.460663 116.816620,461.619843 
	C114.144966,459.575836 111.625137,457.824158 108.939499,455.783997 
	C107.555702,454.687408 106.337708,453.879333 104.953300,452.773834 
	C102.559532,450.675018 100.332184,448.873657 97.938873,446.783600 
	C96.555893,445.674805 95.338882,444.854675 93.952560,443.743164 
	C91.824341,441.596710 89.865440,439.741669 87.775536,437.615295 
	C86.467567,436.260437 85.290604,435.176880 83.953064,433.794006 
	C81.829964,431.625397 79.867432,429.756073 77.774811,427.615845 
	C76.467934,426.261292 75.291130,425.177612 73.953293,423.794250 
	C71.896843,421.353851 70.001427,419.213135 67.946030,416.788757 
	C67.175438,415.610504 66.564819,414.715851 65.770935,413.557129 
	C63.423233,410.888916 61.258797,408.484772 59.024837,405.756989 
	C58.010319,404.317902 57.065327,403.202484 56.050308,401.738953 
	C54.355255,398.951294 52.730232,396.511749 50.956802,393.782227 
	C49.910145,392.359619 49.011906,391.226929 48.043839,389.744965 
	C46.358547,386.953522 44.743076,384.511383 43.057167,381.729767 
	C42.301453,380.224152 41.616180,379.057983 40.901627,377.549438 
	C39.281910,374.501221 37.691475,371.795410 36.035492,368.747070 
	C35.290028,367.233582 34.610107,366.062561 33.900543,364.532379 
	C32.557182,361.408844 31.243464,358.644470 29.903297,355.540100 
	C29.228577,353.763580 28.580303,352.327057 27.900562,350.529846 
	C26.613194,347.137390 25.357294,344.105682 24.062807,340.699432 
	C23.677887,338.877350 23.331551,337.429810 22.841629,335.647400 
	C21.795382,332.215668 20.892719,329.118805 19.858242,325.705383 
	C19.140270,323.900085 18.554113,322.411316 17.964025,320.529541 
	C17.303232,316.764801 16.646368,313.393036 15.855701,309.686218 
	C15.184228,307.604950 14.646558,305.858765 14.079136,303.675812 
	C13.695200,299.833313 13.341017,296.427612 12.932434,292.642456 
	C12.580814,290.502014 12.283593,288.740997 11.975749,286.564331 
	C11.638716,282.438965 11.312304,278.729248 10.988846,274.630615 
	C10.656444,272.488129 10.321089,270.734497 9.990035,268.519104 
	C9.991356,264.045135 9.988376,260.032928 9.990086,255.580612 
	C9.991823,253.087906 9.988872,251.035278 9.990217,248.547043 
	C10.324992,243.748093 10.655470,239.384735 10.993031,234.612640 
	C11.328771,231.796722 11.657426,229.389542 11.993201,226.562469 
	C12.661765,221.435486 13.323209,216.728409 14.047825,211.641693 
	C14.736098,208.501923 15.361199,205.741791 16.041750,202.597717 
	C17.426064,196.697372 18.754929,191.180984 20.226646,185.366760 
	C21.242004,181.954681 22.114506,178.840469 23.149675,175.427307 
	C25.870665,168.738327 28.428986,162.348282 30.997280,155.977753 
	C31.007254,155.997253 30.963228,156.003647 31.224897,155.802185 
	C31.661333,154.965515 31.836100,154.330338 32.189034,153.415802 
	C34.234081,149.407074 36.100964,145.677704 37.987171,141.966431 
	C38.006500,141.984558 37.954254,141.993317 38.204617,141.795013 
	C38.634209,140.989929 38.813438,140.383148 39.157768,139.489517 
	C45.588924,129.573578 51.887657,119.965378 58.072819,110.284622 
	C58.724541,109.264572 58.707798,107.817429 59.123219,106.381439 
	C59.685658,105.797691 60.126064,105.400932 60.955196,104.991364 
	C61.900574,104.216789 62.457226,103.455032 63.178905,102.421051 
	C76.793587,88.770622 90.243240,75.392426 104.078522,61.956383 
	C104.977486,61.121201 105.490822,60.343853 106.126007,59.379395 
	C106.688042,58.795238 107.128227,58.398193 107.974060,58.032219 
	C109.180344,57.872211 110.109467,57.880650 110.762390,57.460186 
	C120.788086,51.003944 130.777802,44.491833 141.099304,37.965279 
	C141.946274,37.610012 142.469818,37.282173 142.989044,36.980453 
	C142.984726,37.006565 142.948395,36.968067 143.309692,36.931541 
	C147.345474,34.933662 151.019928,32.972313 155.031189,30.982174 
	C155.913849,30.623728 156.459732,30.294067 157.003082,29.985760 
	C157.000580,30.007111 156.962234,29.989649 157.344269,29.983940 
	C163.811752,27.647795 169.897186,25.317358 176.279480,22.956619 
	C177.048279,22.601765 177.520203,22.277206 177.987061,21.978998 
	C177.981979,22.005346 177.948303,21.963591 178.328659,21.962902 
	C181.360229,21.002708 184.011444,20.043203 187.088745,19.060051 
	C193.003662,17.686516 198.492508,16.336628 204.376770,14.978563 
	C207.519882,14.307855 210.267578,13.645323 213.442810,12.987814 
	C218.574142,12.324017 223.277954,11.655196 228.398773,10.991066 
	C231.217987,10.658798 233.620193,10.321841 236.480255,9.989515 
	C241.277039,9.659161 245.615952,9.324175 250.397308,8.998440 
	C252.899643,9.000381 254.959518,8.993072 257.471252,8.990324 
	C261.609375,9.325259 265.295654,9.655632 269.421814,9.990711 
	C271.914520,9.992251 273.967346,9.989087 276.457855,9.990313 
	C280.590454,10.325112 284.285400,10.655523 288.365967,11.002198 
	C290.507874,11.340900 292.264130,11.663340 294.431946,11.992717 
	C298.222931,12.661814 301.602325,13.323971 305.369995,13.992515 
	C307.511993,14.327985 309.265747,14.657069 311.414734,15.002949 
	C315.159302,15.648215 318.508636,16.276688 322.099365,17.164366 
	C323.900879,17.944494 325.461029,18.465416 327.390839,19.035347 
	C330.834229,20.050016 333.907990,21.015676 337.292603,22.120953 
	C339.076385,22.837038 340.549347,23.413507 342.389221,24.039694 
	C345.801117,25.036518 348.846069,25.983624 352.111206,27.194365 
	C353.581573,28.003519 354.831818,28.549038 356.310791,29.346073 
	C359.394165,30.768328 362.248810,31.939066 365.296234,33.353409 
	C367.000214,34.394558 368.511444,35.192101 370.336456,36.134651 
	C373.396759,37.494133 376.143219,38.708607 379.058563,40.207222 
	C380.491333,41.323868 381.755249,42.156372 383.327209,43.130035 
	C386.084290,44.841377 388.533356,46.411560 391.280640,48.118164 
	C392.743591,48.871056 393.908386,49.487522 395.270477,50.357914 
	C397.956909,52.399082 400.446014,54.186321 403.221100,56.125927 
	C404.381775,56.923779 405.256531,57.569263 406.357971,58.433174 
	C409.087708,60.472279 411.590729,62.292957 414.236328,64.398560 
	C415.612915,65.487053 416.846985,66.290619 418.223572,67.387360 
	C420.609436,69.491661 422.852753,71.302803 425.223877,73.387039 
	C426.529999,74.742447 427.708313,75.824760 429.043945,77.208069 
	C431.165833,79.377136 433.130432,81.245216 435.224976,83.384331 
	C436.532410,84.739395 437.709839,85.823418 439.047974,87.206558 
	C441.103851,89.646309 442.999023,91.786949 445.055420,94.211327 
	C446.168732,95.365204 447.120789,96.235336 448.209564,97.404991 
	C450.195648,100.112274 452.045044,102.520035 454.055786,105.211784 
	C455.177429,106.356857 456.137726,107.217941 457.118103,108.419716 
	C458.781403,111.183617 460.424622,113.606827 462.197418,116.318115 
	C463.241394,117.773514 464.155792,118.940826 465.210266,120.413795 
	C466.931702,123.184097 468.513031,125.648750 470.209412,128.403870 
	C471.179657,130.095016 472.034912,131.495697 472.958801,133.246796 
	C474.355011,136.058060 475.682648,138.518890 477.137756,141.280518 
	C478.140320,143.019897 479.015411,144.458466 479.958801,146.256943 
	C481.374481,149.117996 482.721863,151.619141 484.092957,154.450073 
	C484.747711,156.209885 485.378784,157.639923 486.054016,159.427338 
	C487.402557,162.552643 488.706879,165.320572 490.011780,168.444000 
	C490.639069,170.497375 491.265747,172.195236 491.931610,174.284180 
	C493.002502,177.490234 494.034210,180.305206 495.057983,183.483795 
	C495.640747,185.832336 496.231476,187.817245 496.879761,190.201981 
	C497.629333,193.394440 498.321350,196.187088 499.059570,199.360291 
	C499.408325,201.499313 499.710968,203.257797 500.165710,205.372070 
	C501.147095,209.436066 501.976349,213.144272 502.865631,217.282349 
	C502.955139,219.147522 502.984619,220.582794 503.172180,222.384155 
	C503.891632,226.160645 504.452972,229.571045 505.009827,233.421448 
	C505.008209,235.913483 505.011078,237.965530 505.010254,240.444580 
	C505.342346,244.574402 505.678162,248.277206 506.009369,252.420227 
	C506.007690,254.913361 506.010651,256.966309 506.009460,259.472412 
	C505.675018,264.276794 505.344696,268.628021 505.009766,273.419434 
	C505.008118,275.912964 505.011017,277.966309 504.995117,280.433594 
	C504.322449,285.558136 503.668610,290.268768 502.954407,295.375061 
	C502.593872,298.174500 502.293701,300.578278 501.832092,303.330536 
	C500.452850,309.112854 499.235016,314.546692 497.864716,320.320770 
	C497.154114,323.124176 496.595947,325.587372 496.016266,328.035278 
	C495.994751,328.019958 496.046387,328.008942 495.806396,328.184448 
	C495.381744,328.912903 495.197083,329.465820 494.859680,330.355408 
	C492.809204,336.475342 490.911499,342.258636 489.003784,348.022430 
	C488.993744,348.002960 489.037872,347.997894 488.794739,348.165527 
	C488.372437,348.882812 488.193268,349.432465 487.866638,350.306396 
	C486.490234,353.770538 485.261322,356.910461 484.012939,360.033264 
	C483.993500,360.016144 484.044586,360.007507 483.793762,360.205139 
	C483.364380,361.009796 483.185852,361.616821 482.841156,362.511871 
	C479.068024,369.309601 475.407196,375.790314 471.884918,382.345520 
	C470.739349,384.477570 469.955933,386.804169 469.002777,389.019531 
	C468.998688,388.997223 469.043793,389.003143 468.696594,389.035095 
	C467.895081,389.813446 467.440796,390.559845 466.767731,391.543335 
	C463.333160,396.084137 459.985870,400.297913 456.955200,404.728271 
	C455.357178,407.064301 454.311554,409.778198 452.942261,412.473572 
	C452.730072,412.815582 452.548737,412.944580 451.968414,413.036041 
	C451.077881,413.725952 450.542969,414.392426 449.999023,415.028473 
	C449.990021,414.998077 450.052765,414.988525 449.810303,415.136108 
	C449.374664,415.607727 449.181488,415.931793 448.831238,416.535645 
	C437.830078,427.540955 426.985962,438.266510 415.787781,449.049133 
	C414.959930,449.845428 414.486176,450.584656 413.938599,451.476196 
	C413.726959,451.818451 413.545837,451.947784 412.927185,451.995483 
	C411.226166,452.600403 409.804749,453.061157 408.629578,453.876678 
	C384.777924,470.428528 366.615814,493.014069 346.000000,513.000000 
M335.309174,197.143600 
	C328.035492,193.259720 320.725830,189.441376 313.496429,185.476791 
	C302.339111,179.358078 291.236694,173.139236 279.829376,166.177658 
	C277.914459,155.044373 276.891479,143.656387 273.807770,132.856827 
	C271.253113,123.909882 267.317047,114.945793 262.109955,107.266075 
	C254.645935,96.257744 243.351624,96.569855 235.125839,107.011292 
	C232.182678,110.747215 229.817245,115.076332 227.880371,119.441826 
	C221.246826,134.392990 218.967743,150.360977 216.864700,166.614792 
	C200.265457,176.072708 183.676727,185.549225 167.049454,194.957596 
	C165.519867,195.823105 163.744415,196.254059 161.757202,196.236572 
	C153.369431,193.856308 144.981659,191.476028 135.867477,188.889603 
	C135.295517,197.425583 134.776520,205.171295 133.932816,213.557724 
	C132.421906,214.565933 130.962799,215.664169 129.391937,216.568207 
	C115.843948,224.365189 102.316414,232.199615 88.680328,239.840012 
	C85.859840,241.420349 84.636559,243.217453 84.739487,246.511444 
	C84.968155,253.830368 84.797729,261.161377 84.814445,268.487396 
	C84.829338,275.016449 86.184227,276.095551 92.585564,274.607574 
	C127.390640,266.517242 162.182358,258.369141 197.002106,250.342545 
	C205.221863,248.447723 213.531815,246.944122 221.827637,246.145294 
	C223.770737,268.840210 225.774307,291.530182 227.628601,314.232361 
	C228.423920,323.969696 228.908905,333.732391 228.857315,343.673157 
	C210.980789,353.864502 193.092789,364.035858 175.253677,374.292236 
	C174.068649,374.973572 172.485504,376.244263 172.404266,377.338593 
	C172.077621,381.738251 172.269089,386.176422 172.269089,391.269653 
	C174.657242,390.829498 176.238205,390.609436 177.784225,390.242279 
	C196.166641,385.877289 214.543884,381.490417 233.021225,377.916351 
	C234.282776,389.597351 240.565247,396.922943 249.047745,396.603943 
	C257.363434,396.291168 263.446350,388.766632 264.816010,377.648254 
	C283.992706,382.162598 303.169434,386.676910 323.206055,391.393646 
	C323.206055,386.789276 323.476532,382.826416 323.078278,378.931946 
	C322.909515,377.281677 321.724365,375.111816 320.342773,374.303680 
	C302.705231,363.986572 284.948090,353.873932 267.189667,342.900330 
	C269.996735,310.241699 272.803772,277.583099 276.478516,244.759079 
	C277.784576,244.998474 279.103027,245.184616 280.394897,245.484940 
	C321.803314,255.111328 363.207672,264.755035 404.617004,274.377411 
	C410.540985,275.753967 411.945862,274.679840 411.980072,268.786499 
	C412.022552,261.467010 411.805664,254.140060 412.077728,246.830368 
	C412.214050,243.167297 410.881409,241.104263 407.736664,239.346939 
	C394.103882,231.728729 380.583313,223.908981 367.054321,216.106445 
	C365.513092,215.217575 364.175201,213.976242 362.758575,211.972885 
	C362.223358,204.899872 361.688141,197.826859 361.113617,190.234528 
	C352.469574,192.656708 344.271942,194.953796 335.309174,197.143600 
z"/>
<path fill="#FDFDFD" opacity="1.000000" stroke="none" 
	d="
M264.042603,378.055298 
	C263.446350,388.766632 257.363434,396.291168 249.047745,396.603943 
	C240.565247,396.922943 234.282776,389.597351 232.988373,377.069336 
	C231.815323,365.309387 230.675095,354.396454 229.534882,343.483551 
	C228.908905,333.732391 228.423920,323.969696 227.628601,314.232361 
	C225.774307,291.530182 223.770737,268.840210 221.895569,245.243790 
	C220.898514,223.998444 219.856262,203.653366 218.753677,183.311569 
	C218.449539,177.700348 217.965485,172.098862 217.563980,166.492920 
	C218.967743,150.360977 221.246826,134.392990 227.880371,119.441826 
	C229.817245,115.076332 232.182678,110.747215 235.125839,107.011292 
	C243.351624,96.569855 254.645935,96.257744 262.109955,107.266075 
	C267.317047,114.945793 271.253113,123.909882 273.807770,132.856827 
	C276.891479,143.656387 277.914459,155.044373 279.638153,166.832703 
	C278.952118,176.266022 278.491730,185.046448 277.952881,193.822021 
	C277.403351,202.770752 276.643005,211.708466 276.223297,220.662643 
	C275.844635,228.741730 275.801788,236.836578 275.610840,244.924469 
	C272.803772,277.583099 269.996735,310.241699 267.144897,343.768463 
	C266.080933,355.776154 265.061768,366.915741 264.042603,378.055298 
M235.671875,170.988434 
	C246.347946,168.024750 256.927856,169.861008 267.746765,171.536285 
	C264.520905,167.913483 261.078064,164.664581 257.595642,161.458725 
	C248.624481,153.200043 248.613785,153.203674 239.845642,161.312408 
	C236.403549,164.495651 232.982010,167.701111 229.551086,170.896439 
	C229.777206,171.208145 230.003326,171.519852 230.229446,171.831543 
	C231.763535,171.569870 233.297607,171.308182 235.671875,170.988434 
z"/>
<path fill="#C2C0BD" opacity="1.000000" stroke="none" 
	d="
M217.214340,166.553864 
	C217.965485,172.098862 218.449539,177.700348 218.753677,183.311569 
	C219.856262,203.653366 220.898514,223.998444 221.881897,244.801407 
	C213.531815,246.944122 205.221863,248.447723 197.002106,250.342545 
	C162.182358,258.369141 127.390640,266.517242 92.585564,274.607574 
	C86.184227,276.095551 84.829338,275.016449 84.814445,268.487396 
	C84.797729,261.161377 84.968155,253.830368 84.739487,246.511444 
	C84.636559,243.217453 85.859840,241.420349 88.680328,239.840012 
	C102.316414,232.199615 115.843948,224.365189 129.391937,216.568207 
	C130.962799,215.664169 132.421906,214.565933 134.429077,213.177948 
	C137.745468,211.207245 140.591583,209.660431 143.380386,208.016373 
	C149.629761,204.332184 155.850647,200.599655 162.083130,196.886810 
	C163.744415,196.254059 165.519867,195.823105 167.049454,194.957596 
	C183.676727,185.549225 200.265457,176.072708 217.214340,166.553864 
z"/>
<path fill="#C2C0BE" opacity="1.000000" stroke="none" 
	d="
M276.044678,244.841766 
	C275.801788,236.836578 275.844635,228.741730 276.223297,220.662643 
	C276.643005,211.708466 277.403351,202.770752 277.952881,193.822021 
	C278.491730,185.046448 278.952118,176.266022 279.778992,167.225311 
	C291.236694,173.139236 302.339111,179.358078 313.496429,185.476791 
	C320.725830,189.441376 328.035492,193.259720 335.721985,197.533005 
	C339.009674,199.982513 341.710236,202.365021 344.796814,204.033508 
	C350.662231,207.204254 356.748474,209.966476 362.743011,212.898331 
	C364.175201,213.976242 365.513092,215.217575 367.054321,216.106445 
	C380.583313,223.908981 394.103882,231.728729 407.736664,239.346939 
	C410.881409,241.104263 412.214050,243.167297 412.077728,246.830368 
	C411.805664,254.140060 412.022552,261.467010 411.980072,268.786499 
	C411.945862,274.679840 410.540985,275.753967 404.617004,274.377411 
	C363.207672,264.755035 321.803314,255.111328 280.394897,245.484940 
	C279.103027,245.184616 277.784576,244.998474 276.044678,244.841766 
z"/>
<path fill="#C1BFBD" opacity="1.000000" stroke="none" 
	d="
M229.196106,343.578369 
	C230.675095,354.396454 231.815323,365.309387 232.938995,376.665771 
	C214.543884,381.490417 196.166641,385.877289 177.784225,390.242279 
	C176.238205,390.609436 174.657242,390.829498 172.269089,391.269653 
	C172.269089,386.176422 172.077621,381.738251 172.404266,377.338593 
	C172.485504,376.244263 174.068649,374.973572 175.253677,374.292236 
	C193.092789,364.035858 210.980789,353.864502 229.196106,343.578369 
z"/>
<path fill="#C2C0BD" opacity="1.000000" stroke="none" 
	d="
M264.429321,377.851776 
	C265.061768,366.915741 266.080933,355.776154 267.160706,344.172974 
	C284.948090,353.873932 302.705231,363.986572 320.342773,374.303680 
	C321.724365,375.111816 322.909515,377.281677 323.078278,378.931946 
	C323.476532,382.826416 323.206055,386.789276 323.206055,391.393646 
	C303.169434,386.676910 283.992706,382.162598 264.429321,377.851776 
z"/>
<path fill="#F3F5F9" opacity="1.000000" stroke="none" 
	d="
M161.920166,196.561691 
	C155.850647,200.599655 149.629761,204.332184 143.380386,208.016373 
	C140.591583,209.660431 137.745468,211.207245 134.591431,212.857605 
	C134.776520,205.171295 135.295517,197.425583 135.867477,188.889603 
	C144.981659,191.476028 153.369431,193.856308 161.920166,196.561691 
z"/>
<path fill="#F5F7FA" opacity="1.000000" stroke="none" 
	d="
M362.750793,212.435608 
	C356.748474,209.966476 350.662231,207.204254 344.796814,204.033508 
	C341.710236,202.365021 339.009674,199.982513 336.104553,197.586655 
	C344.271942,194.953796 352.469574,192.656708 361.113617,190.234528 
	C361.688141,197.826859 362.223358,204.899872 362.750793,212.435608 
z"/>
</svg>